<mxfile host="app.diagrams.net" modified="2024-05-16T13:12:14.810Z" agent="Mozilla/5.0 (Windows NT 10.0; Win64; x64) AppleWebKit/537.36 (KHTML, like Gecko) Chrome/124.0.0.0 Safari/537.36" version="24.4.2" etag="GEqzhxMw2UlYNCvti3u5" type="github">
  <diagram name="PÃ¡gina-1" id="JoK-WnScbomQUNvODm-q">
    <mxGraphModel>
      <root>
        <mxCell id="0" />
        <mxCell id="1" parent="0" />
      </root>
    </mxGraphModel>
  </diagram>
</mxfile>
